<svg xmlns="http://www.w3.org/2000/svg" version="1.1" xmlns:xlink="http://www.w3.org/1999/xlink" xmlns:svgjs="http://svgjs.dev/svgjs" width="1000" height="623" viewBox="0 0 1000 623"><g transform="matrix(1,0,0,1,-0.6060606060606233,0.2522267206477409)"><svg viewBox="0 0 396 247" data-background-color="#fefee3" preserveAspectRatio="xMidYMid meet" height="623" width="1000" xmlns="http://www.w3.org/2000/svg" xmlns:xlink="http://www.w3.org/1999/xlink"><g id="tight-bounds" transform="matrix(1,0,0,1,0.2400000000000091,-0.09999999999999432)"><svg viewBox="0 0 395.52 247.2" height="247.2" width="395.52"><g><svg></svg></g><g><svg viewBox="0 0 395.52 247.2" height="247.2" width="395.52"><g transform="matrix(1,0,0,1,0,82.61438292194796)"><svg viewBox="0 0 395.52 81.97123415610406" height="81.97123415610406" width="395.52"><g><svg viewBox="0 0 395.52 81.97123415610406" height="81.97123415610406" width="395.52"><g><svg viewBox="0 0 395.52 81.97123415610406" height="81.97123415610406" width="395.52"><g><svg viewBox="0 0 395.52 81.97123415610406" height="81.97123415610406" width="395.52"><g id="textblocktransform"><svg viewBox="0 0 395.52 81.97123415610406" height="81.97123415610406" width="395.52" id="textblock"><g><svg viewBox="0 0 395.52 81.97123415610406" height="81.97123415610406" width="395.52"><g transform="matrix(1,0,0,1,0,0)"><svg width="395.52" viewBox="-2 -42.599998474121094 225.8300018310547 47.599998474121094" height="81.97123415610406" data-palette-color="#70a0af"><path d="M18.7-32.2L10.4-31.7 10.4-4.5Q13.3-2.8 18.3-2.8L18.3-2.8Q24.25-2.8 28.8-6.05L28.8-6.05Q31.1-7.7 32.45-10.65 33.8-13.6 33.8-17.32 33.8-21.05 32.33-23.95 30.85-26.85 28.5-28.6L28.5-28.6Q23.75-32.2 18.7-32.2L18.7-32.2ZM2-35L9.7-35 22.1-35.5Q29.05-35.5 33.08-31 37.1-26.5 37.1-18.98 37.1-11.45 31.33-5.73 25.55 0 17.8 0L17.8 0 2 0 2-1.5 3.7-1.5Q5.2-1.5 5.65-2.05 6.1-2.6 6.1-3.7L6.1-3.7 6.1-31.3Q6.1-32.45 5.63-32.98 5.15-33.5 3.7-33.5L3.7-33.5 2-33.5 2-35ZM72.95-1.4L72.95 0 60.15 0 60.15-1.4 61.75-1.4Q63.95-1.4 63.95-2.8L63.95-2.8Q63.95-3 63.45-4.5L63.45-4.5 60.05-13.4 47.45-13.4 44.15-4.9Q44.15-4.8 43.8-3.68 43.45-2.55 43.45-2.13 43.45-1.7 44-1.55 44.55-1.4 46.35-1.4L46.35-1.4 47.15-1.4 47.15 0 37.35 0 37.35-1.4 38.05-1.4Q39.7-1.4 40.45-1.98 41.2-2.55 41.75-3.9L41.75-3.9 52.75-32.6Q53-32.65 53.65-33.33 54.3-34 54.85-34.73 55.4-35.45 55.4-35.55 55.4-35.65 55.35-35.7L55.35-35.7 56.05-35.9 68.35-3.7Q68.9-2.55 69.47-1.98 70.05-1.4 71.15-1.4L71.15-1.4 72.95-1.4ZM48.25-15.5L59.15-15.5 53.75-29.8 48.25-15.5ZM85.15 0.7L85.15 0.7Q80.75 0.7 77.8-2.6 74.85-5.9 74.85-10.3L74.85-10.3Q74.85-15.9 79.07-19.95 83.3-24 88-24 92.7-24 95.57-20.68 98.45-17.35 98.45-13L98.45-13Q98.45-7.55 94.42-3.43 90.4 0.7 85.15 0.7ZM78.35-13Q78.35-8.35 81.17-5.28 84-2.2 87.52-2.2 91.05-2.2 93.05-4.85 95.05-7.5 95.05-10.3L95.05-10.3Q95.05-14.55 92.42-17.73 89.8-20.9 86.05-20.9 82.3-20.9 80.32-18.38 78.35-15.85 78.35-13L78.35-13ZM131.94-9.8L131.94-9.8 133.14-8Q129.09-3.4 125.04-1.2 120.99 1 116.34 1L116.34 1Q110.59 1 106.12-4.05 101.64-9.1 101.64-15.5L101.64-15.5Q101.64-23.55 107.72-29.73 113.79-35.9 121.84-35.9L121.84-35.9Q125.04-35.9 129.84-34.3L129.84-34.3 129.24-27.3 127.54-27.3Q127.54-29.15 126.29-30.2 125.04-31.25 123.47-31.53 121.89-31.8 119.54-31.8L119.54-31.8Q113.74-31.8 109.44-28.4 105.14-25 105.14-19.1L105.14-19.1Q105.14-14.8 106.74-11.45 108.34-8.1 110.74-6.3L110.74-6.3Q115.49-2.8 119.84-2.8L119.84-2.8Q122.54-2.8 125.84-4.55 129.14-6.3 131.94-9.8ZM141.47-34.8Q142.59-34.8 143.22-34.05 143.84-33.3 143.84-32.13 143.84-30.95 142.89-30.18 141.94-29.4 140.82-29.4 139.69-29.4 139.07-30.15 138.44-30.9 138.44-32.02 138.44-33.15 139.39-33.98 140.34-34.8 141.47-34.8ZM146.94-1.4L146.94 0 136.84 0 136.84-1.4 137.64-1.4Q138.99-1.4 139.37-1.85 139.74-2.3 139.74-3.3L139.74-3.3 139.74-18.3Q139.74-19.25 139.12-19.68 138.49-20.1 136.84-20.1L136.84-20.1 136.84-21.5Q137.84-21.5 139.87-22.23 141.89-22.95 142.94-23.6L142.94-23.6 143.84-23.8 143.84-3.6Q143.84-2.8 143.92-2.45 143.99-2.1 144.49-1.75 144.99-1.4 146.04-1.4L146.04-1.4 146.94-1.4ZM176.24-1.4L176.24 0 167.64 0 167.64-1.4 167.84-1.4Q168.39-1.4 168.76-1.95 169.14-2.5 169.14-3.3L169.14-3.3 169.14-16Q169.14-18.25 168.06-19.43 166.99-20.6 165.04-20.6L165.04-20.6Q162.24-20.6 160.09-17.6 157.94-14.6 157.94-13.1L157.94-13.1 157.94-3.6Q157.94-2.8 158.01-2.45 158.09-2.1 158.59-1.75 159.09-1.4 160.14-1.4L160.14-1.4 161.04-1.4 161.04 0 150.94 0 150.94-1.4 151.74-1.4Q153.09-1.4 153.46-1.85 153.84-2.3 153.84-3.3L153.84-3.3 153.84-18.3Q153.84-19.25 153.21-19.68 152.59-20.1 150.94-20.1L150.94-20.1 150.94-21.5Q151.94-21.5 153.96-22.23 155.99-22.95 157.04-23.6L157.04-23.6 157.94-23.8 157.94-17.4Q159.09-20.55 161.49-22.28 163.89-24 167.34-24L167.34-24Q169.14-24 170.39-23.2 171.64-22.4 172.19-21.15L172.19-21.15Q173.14-19 173.14-16.9L173.14-16.9 173.14-3.4Q173.14-2.7 173.24-2.35L173.24-2.35Q173.49-1.4 175.34-1.4L175.34-1.4 176.24-1.4ZM193.64-38.6L193.64-38.6Q195.54-38.6 197.94-37.4L197.94-37.4 197.54-32.9 196.14-33Q196.14-34 195.14-35.3 194.14-36.6 192.54-36.6L192.54-36.6Q189.84-36.6 188.49-33.95 187.14-31.3 187.14-25.4L187.14-25.4Q187.14-23.4 189.14-23.4L189.14-23.4 194.04-23.4 194.04-21.3 187.24-21.3 187.24-3.7Q187.24-2.9 187.31-2.53 187.39-2.15 187.89-1.78 188.39-1.4 189.44-1.4L189.44-1.4 191.04-1.4 191.04 0 180.24 0 180.24-1.4 180.84-1.4Q181.94-1.4 182.46-1.78 182.99-2.15 183.06-2.53 183.14-2.9 183.14-3.7L183.14-3.7 183.14-19.5Q183.14-20.45 182.79-20.88 182.44-21.3 181.34-21.3L181.34-21.3 180.24-21.3 180.24-23.4 183.14-23.4 183.14-25.6Q183.14-38.6 193.64-38.6ZM206.53 0.7L206.53 0.7Q202.13 0.7 199.18-2.6 196.23-5.9 196.23-10.3L196.23-10.3Q196.23-15.9 200.46-19.95 204.68-24 209.38-24 214.08-24 216.96-20.68 219.83-17.35 219.83-13L219.83-13Q219.83-7.55 215.81-3.43 211.78 0.7 206.53 0.7ZM199.73-13Q199.73-8.35 202.56-5.28 205.38-2.2 208.91-2.2 212.43-2.2 214.43-4.85 216.43-7.5 216.43-10.3L216.43-10.3Q216.43-14.55 213.81-17.73 211.18-20.9 207.43-20.9 203.68-20.9 201.71-18.38 199.73-15.85 199.73-13L199.73-13Z" opacity="1" transform="matrix(1,0,0,1,0,0)" fill="#70a0af" class="undefined-text-0" data-fill-palette-color="primary" id="text-0"></path></svg></g></svg></g></svg></g></svg></g></svg></g></svg></g></svg></g><g mask="url(&quot;#93abdfd5-c7e5-4c30-b6a9-d42103d629fe&quot;)"><g transform="matrix(2.8508544929303117, 0, 0, 2.8508544929303117, 115.9938817239964, 1)"><svg xmlns="http://www.w3.org/2000/svg" xmlns:xlink="http://www.w3.org/1999/xlink" version="1.1" x="0" y="0" viewBox="21.011003494262695 6.995712757110596 57.36253356933594 86.0093002319336" enable-background="new 0 0 100 100" xml:space="preserve" height="86.0093002319336" width="57.36253356933594" class="icon-none" data-fill-palette-color="accent" id="none"><g fill="#70a0af" data-fill-palette-color="accent"><path d="M77.438 58.807c0.155-0.176 0.154-0.436 0.008-0.609-0.225-0.163-0.461-0.241-0.739-0.245-1.938-0.361-3.257-2.163-3.036-4.104 0.032-0.261 0.049-0.49 0.047-0.736-0.098-0.305-0.422-0.473-0.727-0.375-0.006 0.002-0.01 0.004-0.016 0.005-0.308 0.034-0.604 0.034-0.933 0.003-2.492-0.243-4.326-2.437-4.133-4.923-0.005-0.287-0.146-0.531-0.394-0.678-0.022 0.014-0.137 0.09-0.271 0.179-0.772 0.617-1.688 0.824-2.649 0.601-1.677-0.387-2.72-2.062-2.33-3.738 0.027-0.25 0.062-0.492 0.043-0.682-0.026-0.275-0.338-0.123-0.574 0.036-0.721 0.491-0.932 0.71-1.641 0.512-0.99-0.429-1.535-1.458-1.363-2.49 0.357-0.67 0.379-1.396 0.063-2.087-0.045-0.007-0.085-0.009-0.12-0.004-0.637 0.583-1.313 0.93-2.159 1.104-1.06 0.127-2.054-0.447-2.785-1.231-0.474-0.505-1.438-1.916-1.771-2.682-0.209-0.482-0.24-0.621-0.483-0.918-0.627-1.071-1.833-1.587-3.005-1.336-2.234 1.807-3.21 4.489-2.662 7.309-0.337 0.281-0.594 0.552-0.856 0.904-0.167 0.129-0.413 0.245-0.566 0.275-0.711-0.292-1.387-0.365-2.146-0.236-0.96 0.206-2.828 0.688-2.917 0.658-1.102-0.8-2.554-0.742-3.586 0.145-0.165 0.188-0.295 0.396-0.356 0.57-0.258 0.731-0.034 0.883-0.594 1.521-0.397 0.454-0.706 0.43-1.365 0.314-0.554 0.094-0.977 0.463-1.147 0.999-0.02 0.169 0.009 0.382-0.024 0.568-0.034 0.19-0.167 0.468-0.085 0.597 0.234 0.038 0.454-0.065 0.573-0.269 0.014-0.01 0.026-0.018 0.039-0.025 0.222-0.035 0.405-0.092 0.607-0.191 0 0-0.329 0.5-0.536 0.836-0.36 0.591-0.344 0.699-0.451 1.274-0.038 0.208-0.31 2.361-0.275 2.388 0.052 0.034-0.122 0.06-0.122 0.06s0-0.002 0-0.004c1-0.358 0.596-0.709 0.649-1.135 0.003-0.01 0.125-0.021 0.129-0.031 0.304-0.951 0.963-1.654 1.854-2.103 0.343 0.219 0.528 0.618 0.424 1.013-0.004 0.004 0.037 0.01 0.032 0.014C34.548 50.305 34 50.811 34 51.471c0 0.002 0 0.006 0 0.008 0 0.172-0.034 0.31 0.014 0.449 0.175 0.456 0.227 0.873 0.201 1.361-0.006 0.566-0.013 1.031 0.295 1.238 0.081 0.053 0.796 0.293 1.237 0.422 0.359 0.013 0.667 0.128 0.938 0.352 0.065 0.061 0.165 0.057 0.23-0.001-0.3-0.745-0.719-1.313-1.341-1.821-0.013-0.016-0.023-0.028-0.029-0.041 0.171-1.676 1.458-2.958 3.135-3.124 0.007-0.001 0.014-0.002 0.021-0.004 1.263-0.563 1.916-1.994 1.483-3.333 1.078 0.103 2.028-0.087 2.975-0.595 1.381-0.576 2.912-0.159 3.812 1.035 0.288 0.278 0.709 0.365 1.08 0.231 0.326-0.211 0.641-0.334 1.025-0.396 0.521-0.294 0.76-0.892 0.583-1.465 0.059-0.298 0.244-0.892 0.37-1.372 0.2-0.866-0.228-1.724-1.038-2.087 0.298-0.8 0.525-1.494 0.757-2.32 0 0 1.175 1.035 1.919 1.677 0.424 0.364 0.662 0.559 0.761 0.817-0.57 1.547-0.755 2.977-0.596 4.607-0.604 0.715-1.277 1.187-2.156 1.508-0.019 0.009-0.036 0.018-0.051 0.026 0.602 0.889 1.271 1.647 2.025 2.292 4.32 3.691 3.502 2.891 7.256 4.94 0.216 0.117 0.412 0.224 0.473 0.257-0.018 0.008-0.031 0.018-0.047 0.026-0.816 2.478-1.105 4.72-0.941 7.317-0.379 0.933-0.951 1.672-1.721 2.221-0.428 0.305-1.211-0.211-2.137-0.86-1.365-0.958-2.223-1.354-2.76-1.487-0.209-0.051-0.373-0.091-0.496-0.121l0 0c-0.375-0.092-0.394-0.097 0 0-0.18-0.467 0.037-1.418-0.139-2.086l-0.221-0.832-1.036 0.113c-0.775 0.169-1.01 0.248-1.271 0.35l-1.206 0.468 0.609 0.274c0.195 0.086 0.553 0.15 1.136 0.17 0.058 0.08 0.12 0.166 0.188 0.258 0.152 0.658 0.451 1.638 0.444 1.646-0.178 0.168-0.344 0.384-0.499 0.654-0.079-0.15-0.141-0.31-0.183-0.466-0.155-0.596-0.093-0.766-0.432-0.977-0.073-0.045-1.438-0.678-1.917-0.672-0.062 0.001-0.12 0.01-0.177 0.023-0.93 0.635-1.823 1.021-2.922 1.264-0.077 0.057-0.125 0.117-0.118 0.184 0.97 0.562 1.96 0.752 3.07 0.594 0.013-0.002 0.021-0.004 0.021-0.004 0.68 0.25 1.135 0.813 1.237 1.521-0.237 0.123-0.514 0.078-0.699-0.115-0.476-0.242-0.954-0.379-1.509-0.438-0.007 0.002-0.013 0.002-0.018 0.004-0.763 0.229-1.284 1.631-1.961 2.584-0.149 0.211-0.308 0.401-0.47 0.588-0.111 0.123-0.103 0.313 0.019 0.424 0.077 0.07 0.177 0.095 0.279 0.067 0.279-0.1 1.648-0.99 2.546-1.483 0.202-0.11 0.533-0.231 0.606-0.221 0.234 0.03 0.361 0.506 0.489 0.819 0.198 0.488 0.482 0.647 1.019 0.646 0.171-0.001 0.341-0.018 0.515 0.01 0.33 0.051 0.532 0.188 0.751 0.195 0.313 0.032 0.595-0.186 0.646-0.491-0.06-0.311 0.061-0.608 0.322-0.79 0.986 0.075 1.837 0.274 2.712 0.641 0.594 0.174 1.024 0.57 1.248 1.146 0.002 0.003 0.004 0.006 0.006 0.011 0.427 1.034 1.236 1.734 2.32 2.01 0.396 0.053 1.004 0.086 1.457 0.137 0.873 0.154 1.49 0.895 1.483 1.779 0.063 0.566 0.104 1.256 0.104 1.256s0.104-0.025 0.174-0.065c0.014-0.007 0.025-0.019 0.039-0.032 1.205-0.975 1.457-2.69 0.631-3.963-0.4-0.529-0.818-0.919-1.377-1.279-0.252-0.575-0.209-1.187 0.121-1.728 0.677-0.577 1.189-1.183 1.668-1.96 0.188-1.012 0.297-1.919 0.354-2.977 2.926 2.023 4.188 4.932 4.293 5.229 0 0 0.004-0.012 0.036-0.137 0.36-1.409 0.083-3.438-0.167-5.114-0.656-2.044-1.279-3.615-2.029-4.765 0.211 0.077 0.418 0.167 0.625 0.264 4.416 1.488 7.559 4.712 8.906 9.114 0.977 2.683 1.195 5.186 0.703 7.997-1.484 8.442-9.531 14.087-17.975 12.604 0.883-0.827 1.41-1.771 1.649-2.958-4.021 1.391-8.198 0.369-11.125-2.718-0.169-0.142-0.328-0.214-0.382 0.001-0.003 0.014-0.005 0.027-0.007 0.04 1.879 4.868 4.989 8.437 9.554 10.963 0.146 0.001 0.191-0.063 0.171-0.251-0.043-0.395-0.325-0.51-0.68-0.861-0.317-0.313-0.829-1.162-0.938-1.604-0.101-0.396-0.055-0.839 0.243-0.904 8.173 2.223 16.441-0.992 20.968-8.15 3.237-5.619 3.905-11.781 1.942-18.02C76.635 61.699 76.738 60.23 77.438 58.807z" fill="#70a0af" data-fill-palette-color="accent"></path><path d="M34.516 29.942c0.096 0.045 0.21 0.005 0.259-0.089 0.042-0.082 0.023-0.179-0.046-0.239-0.414-0.564-0.72-1.102-1.007-1.759-0.104-0.496 0.125-0.998 0.551-1.248 2.738-1.511 5.809-1.464 8.499 0.131 0.62 0.378 0.935 1.129 0.733 1.861-0.335 1.138-0.794 2.1-1.478 3.112-0.662 1.302-0.408 2.887 0.684 3.927 0.004 0.009 0.008-0.116 0.011-0.106C41.965 37.424 42.077 39 43.047 41c0.002 0 0.004 0 0.006 0 0.046 0 0.103 0.13 0.162 0.105 0.634-2.549 1.45-4.569 2.713-6.872 0.363-0.809 0.792-1.551 1.313-2.358 0.245-0.232 0.512-0.269 0.933-0.147 0.12 0.035 0.347 0.189 0.499 0.329 0.501 0.459 1.479 1.497 1.479 1.497 0.001-0.015 0.002-0.029 0.004-0.044 0.171-2.065 1.007-3.77 2.536-5.17-0.904-2.838-3.115-4.794-6.042-5.349-0.209-0.073-0.381-0.204-0.518-0.393-0.353-0.491-0.241-1.174 0.25-1.526 0.154-0.117 0.336-0.236 0.474-0.282 0.14-0.121 0.158-0.329 0.045-0.473-1.778-0.353-3.359-0.283-5.099 0.221-0.357 0.126-0.784 0.29-1.17 0.374-0.309 0.081-0.591 0.077-0.898-0.013-0.025-0.707 0.072-1.311 0.317-1.972 0.003-0.112-0.085-0.204-0.197-0.207-0.055-0.001-0.102 0.017-0.143 0.054-0.177 0.126-0.519 0.365-0.87 0.581-0.122 0.075-4.413 1.434-4.486 1.42-0.043-0.008-0.056-0.015-0.062-0.06-0.002-0.023 0.003-0.063 0.015-0.116 0.679-2.385 0.76-4.552 0.261-6.981-0.02-0.012-0.042-0.018-0.065-0.015-0.061 0.006-0.161 0.059-0.244 0.108-0.405 2.65-1.352 4.811-3.025 6.904 0.15-1.65-0.13-3.092-0.888-4.567-0.032-0.026-0.077-0.047-0.146-0.065-0.18-0.048-0.222 0.065-0.264 0.257-0.043 0.194-0.015 0.606 0.002 1.001-0.002 3.045-1.483 5.64-4.103 7.192-0.548 0.354-1.061 0.672-1.424 0.911-0.262 0.166-0.426 0.402-0.486 0.704 0.411 0.434 0.922 0.653 1.52 0.648 0.017-0.029 0.034-0.054 0.054-0.083 0.347-0.481 1-0.611 1.501-0.314 0.001 0.002 0.002 0.002 0.004 0.003 0.163 0.118 0.198 0.344 0.08 0.506-0.466 0.678-1.3 0.956-2.085 0.69-0.088 0.975-0.801 1.736-1.768 1.886-1.004 0.351-1.768 1.069-2.203 2.081-0.011 0.035-0.018 0.057-0.018 0.057 0.205-0.009 0.379 0.015 0.573 0.083 0.802 0.276 1.229 1.151 0.952 1.954-0.309 1.161-0.703 2.124-1.299 3.181 2.527-1.119 4.279-2.991 5.227-5.587 1.93 0.155 3.648-0.455 5.053-1.799 0.322-0.27 0.764-0.331 1.159-0.149C33.347 29.359 33.913 29.587 34.516 29.942z" fill="#70a0af" data-fill-palette-color="accent"></path><path d="M78.201 25.441c-4.016-0.854-6.939-3.842-7.707-7.875-0.672-4.327 1.931-8.555 6.174-9.861 0.1-0.014 0.168-0.107 0.152-0.206-0.01-0.067-0.051-0.119-0.113-0.143-2.124-0.78-4.412-0.276-6.021 1.342-0.514 0.438-1.166 0.557-1.799 0.326-0.453-0.181-1.408-0.604-2.02-0.872-0.111-0.083-0.268-0.061-0.352 0.05-0.054 0.071-0.064 0.158-0.033 0.243 0.002 0.007 0.004 0.014 0.004 0.021 0.125 0.678 0.295 1.241 0.563 1.875 0.125 0.803-0.223 1.597-0.93 2.055-2.983 2.537-5.517 4.737-8.437 7.332-1.095 0.905-1.354 2.439-0.615 3.653 0.313 0.84 0.726 1.804 1.007 2.58 0.19 0.531 0.174 0.911-0.121 1.271-1.532 0.956-2.813 1.937-4.037 3.105-0.948 0.725-1.47 1.799-1.487 2.913 0.016 1.735 0.989 3.197 2.584 3.882 0.319-0.697 0.711-1.239 1.274-1.762 0.798-0.548 1.875-0.543 2.683 0.068 0.693 0.572 1.111 1.366 1.204 2.303 0.104 0.448 0.22 0.985 0.222 1.086 0.002 0.034 0 0.066-0.008 0.098-0.011 0.042-0.007 0.05 0.032 0.072l0.093 0.051c0.024-0.044 0.047-0.082 0.074-0.124 0.85-1.325 2.61-1.712 3.936-0.864 1.438 0.979 2.338 2.377 2.646 4.125 0.002 0.002 0.006 0.003 0.009 0.005 0.086 0.062 0.163 0.036 0.207-0.007 0.85-2.583 0.4-5.203-1.224-7.305-0.935-1.014-1.675-1.916-2.486-3.03-0.188-0.379-0.358-0.841-0.251-1.116 0.057-0.139 0.229-0.161 0.514-0.186 0.035-0.004 0.078-0.006 0.123-0.005 1.049 0.483 1.891 0.992 2.805 1.698 3.021 2.229 5.295 4.691 7.345 7.935 1.206 1.917 1.712 3.927 1.569 6.221 0.023 0.045 0.057 0.067 0.107 0.057 0.006-0.001 0.014-0.003 0.021-0.006 2.128-3.252 2.284-7.144 0.469-10.491-1.065-2.026-1.862-3.79-2.678-5.929-0.267-1.189 0.323-2.434 1.471-2.961 0.888-0.315 1.795-0.648 2.56-0.914 0.408-0.142 0.715-0.275 0.629-0.547C78.336 25.53 78.283 25.48 78.201 25.441z" fill="#70a0af" data-fill-palette-color="accent"></path></g></svg></g></g><mask id="93abdfd5-c7e5-4c30-b6a9-d42103d629fe"><rect width="640" height="400" fill="white"></rect><g transform="matrix(1,0,0,1,0,82.61438292194796)"><svg viewBox="0 0 395.52 81.97123415610406" height="81.97123415610406" width="395.52"><g><svg viewBox="0 0 395.52 81.97123415610406" height="81.97123415610406" width="395.52"><g><svg viewBox="0 0 395.52 81.97123415610406" height="81.97123415610406" width="395.52"><g><svg viewBox="0 0 395.52 81.97123415610406" height="81.97123415610406" width="395.52"><g id="SvgjsG1485"><svg viewBox="0 0 395.52 81.97123415610406" height="81.97123415610406" width="395.52" id="SvgjsSvg1484"><g><svg viewBox="0 0 395.52 81.97123415610406" height="81.97123415610406" width="395.52"><g transform="matrix(1,0,0,1,0,0)"><svg width="395.52" viewBox="-2 -42.599998474121094 225.8300018310547 47.599998474121094" height="81.97123415610406" data-palette-color="#70a0af"><path d="M18.7-32.2L10.4-31.7 10.4-4.5Q13.3-2.8 18.3-2.8L18.3-2.8Q24.25-2.8 28.8-6.05L28.8-6.05Q31.1-7.7 32.45-10.65 33.8-13.6 33.8-17.32 33.8-21.05 32.33-23.95 30.85-26.85 28.5-28.6L28.5-28.6Q23.75-32.2 18.7-32.2L18.7-32.2ZM2-35L9.7-35 22.1-35.5Q29.05-35.5 33.08-31 37.1-26.5 37.1-18.98 37.1-11.45 31.33-5.73 25.55 0 17.8 0L17.8 0 2 0 2-1.5 3.7-1.5Q5.2-1.5 5.65-2.05 6.1-2.6 6.1-3.7L6.1-3.7 6.1-31.3Q6.1-32.45 5.63-32.98 5.15-33.5 3.7-33.5L3.7-33.5 2-33.5 2-35ZM72.95-1.4L72.95 0 60.15 0 60.15-1.4 61.75-1.4Q63.95-1.4 63.95-2.8L63.95-2.8Q63.95-3 63.45-4.5L63.45-4.5 60.05-13.4 47.45-13.4 44.15-4.9Q44.15-4.8 43.8-3.68 43.45-2.55 43.45-2.13 43.45-1.7 44-1.55 44.55-1.4 46.35-1.4L46.35-1.4 47.15-1.4 47.15 0 37.35 0 37.35-1.4 38.05-1.4Q39.7-1.4 40.45-1.98 41.2-2.55 41.75-3.9L41.75-3.9 52.75-32.6Q53-32.65 53.65-33.33 54.3-34 54.85-34.73 55.4-35.45 55.4-35.55 55.4-35.65 55.35-35.7L55.35-35.7 56.05-35.9 68.35-3.7Q68.9-2.55 69.47-1.98 70.05-1.4 71.15-1.4L71.15-1.4 72.95-1.4ZM48.25-15.5L59.15-15.5 53.75-29.8 48.25-15.5ZM85.15 0.7L85.15 0.7Q80.75 0.7 77.8-2.6 74.85-5.9 74.85-10.3L74.85-10.3Q74.85-15.9 79.07-19.95 83.3-24 88-24 92.7-24 95.57-20.68 98.45-17.35 98.45-13L98.45-13Q98.45-7.55 94.42-3.43 90.4 0.7 85.15 0.7ZM78.35-13Q78.35-8.35 81.17-5.28 84-2.2 87.52-2.2 91.05-2.2 93.05-4.85 95.05-7.5 95.05-10.3L95.05-10.3Q95.05-14.55 92.42-17.73 89.8-20.9 86.05-20.9 82.3-20.9 80.32-18.38 78.35-15.85 78.35-13L78.35-13ZM131.94-9.8L131.94-9.8 133.14-8Q129.09-3.4 125.04-1.2 120.99 1 116.34 1L116.34 1Q110.59 1 106.12-4.05 101.64-9.1 101.64-15.5L101.64-15.5Q101.64-23.55 107.72-29.73 113.79-35.9 121.84-35.9L121.84-35.9Q125.04-35.9 129.84-34.3L129.84-34.3 129.24-27.3 127.54-27.3Q127.54-29.15 126.29-30.2 125.04-31.25 123.47-31.53 121.89-31.8 119.54-31.8L119.54-31.8Q113.74-31.8 109.44-28.4 105.14-25 105.14-19.1L105.14-19.1Q105.14-14.8 106.74-11.45 108.34-8.1 110.74-6.3L110.74-6.3Q115.49-2.8 119.84-2.8L119.84-2.8Q122.54-2.8 125.84-4.55 129.14-6.3 131.94-9.8ZM141.47-34.8Q142.59-34.8 143.22-34.05 143.84-33.3 143.84-32.13 143.84-30.95 142.89-30.18 141.94-29.4 140.82-29.4 139.69-29.4 139.07-30.15 138.44-30.9 138.44-32.02 138.44-33.15 139.39-33.98 140.34-34.8 141.47-34.8ZM146.94-1.4L146.94 0 136.84 0 136.84-1.4 137.64-1.4Q138.99-1.4 139.37-1.85 139.74-2.3 139.74-3.3L139.74-3.3 139.74-18.3Q139.74-19.25 139.12-19.68 138.49-20.1 136.84-20.1L136.84-20.1 136.84-21.5Q137.84-21.5 139.87-22.23 141.89-22.95 142.94-23.6L142.94-23.6 143.84-23.8 143.84-3.6Q143.84-2.8 143.92-2.45 143.99-2.1 144.49-1.75 144.99-1.4 146.04-1.4L146.04-1.4 146.94-1.4ZM176.24-1.4L176.24 0 167.64 0 167.64-1.4 167.84-1.4Q168.39-1.4 168.76-1.95 169.14-2.5 169.14-3.3L169.14-3.3 169.14-16Q169.14-18.25 168.06-19.43 166.99-20.6 165.04-20.6L165.04-20.6Q162.24-20.6 160.09-17.6 157.94-14.6 157.94-13.1L157.94-13.1 157.94-3.6Q157.94-2.8 158.01-2.45 158.09-2.1 158.59-1.75 159.09-1.4 160.14-1.4L160.14-1.4 161.04-1.4 161.04 0 150.94 0 150.94-1.4 151.74-1.4Q153.09-1.4 153.46-1.85 153.84-2.3 153.84-3.3L153.84-3.3 153.84-18.3Q153.84-19.25 153.21-19.68 152.59-20.1 150.94-20.1L150.94-20.1 150.94-21.5Q151.94-21.5 153.96-22.23 155.99-22.95 157.04-23.6L157.04-23.6 157.94-23.8 157.94-17.4Q159.09-20.55 161.49-22.28 163.89-24 167.34-24L167.34-24Q169.14-24 170.39-23.2 171.64-22.4 172.19-21.15L172.19-21.15Q173.14-19 173.14-16.9L173.14-16.9 173.14-3.4Q173.14-2.7 173.24-2.35L173.24-2.35Q173.49-1.4 175.34-1.4L175.34-1.4 176.24-1.4ZM193.64-38.6L193.64-38.6Q195.54-38.6 197.94-37.4L197.94-37.4 197.54-32.9 196.14-33Q196.14-34 195.14-35.3 194.14-36.6 192.54-36.6L192.54-36.6Q189.84-36.6 188.49-33.95 187.14-31.3 187.14-25.4L187.14-25.4Q187.14-23.4 189.14-23.4L189.14-23.4 194.04-23.4 194.04-21.3 187.24-21.3 187.24-3.7Q187.24-2.9 187.31-2.53 187.39-2.15 187.89-1.78 188.39-1.4 189.44-1.4L189.44-1.4 191.04-1.4 191.04 0 180.24 0 180.24-1.4 180.84-1.4Q181.94-1.4 182.46-1.78 182.99-2.15 183.06-2.53 183.14-2.9 183.14-3.7L183.14-3.7 183.14-19.5Q183.14-20.45 182.79-20.88 182.44-21.3 181.34-21.3L181.34-21.3 180.24-21.3 180.24-23.4 183.14-23.4 183.14-25.6Q183.14-38.6 193.64-38.6ZM206.53 0.7L206.53 0.7Q202.13 0.7 199.18-2.6 196.23-5.9 196.23-10.3L196.23-10.3Q196.23-15.9 200.46-19.95 204.68-24 209.38-24 214.08-24 216.96-20.68 219.83-17.35 219.83-13L219.83-13Q219.83-7.55 215.81-3.43 211.78 0.7 206.53 0.7ZM199.73-13Q199.73-8.35 202.56-5.28 205.38-2.2 208.91-2.2 212.43-2.2 214.43-4.85 216.43-7.5 216.43-10.3L216.43-10.3Q216.43-14.55 213.81-17.73 211.18-20.9 207.43-20.9 203.68-20.9 201.71-18.38 199.73-15.85 199.73-13L199.73-13Z" opacity="1" transform="matrix(1,0,0,1,0,0)" fill="#70a0af" class="undefined-text-0" data-fill-palette-color="primary" id="SvgjsPath1483" stroke-width="7" stroke="black" stroke-linejoin="round"></path></svg></g></svg></g></svg></g></svg></g></svg></g></svg></g></svg></g></mask></svg></g><defs></defs></svg><rect width="395.52" height="247.2" fill="none" stroke="none" visibility="hidden"></rect></g></svg></g></svg>